<svg xmlns="http://www.w3.org/2000/svg" width="1200" height="900" viewBox="0 0 1200 900">
<rect width="1200" height="900" fill="#e6e6e6"/>
<rect x="40" y="40" width="1120" height="756" fill="none" stroke="#9a9a9a" stroke-width="2"/><rect x="40" y="40" width="220" height="756" fill="#d6d6d6"/><rect x="64" y="80" width="150" height="14" fill="#9a9a9a"/><rect x="64" y="128" width="120" height="14" fill="#9a9a9a"/><rect x="64" y="176" width="90" height="14" fill="#9a9a9a"/><rect x="64" y="224" width="150" height="14" fill="#9a9a9a"/><rect x="64" y="272" width="120" height="14" fill="#9a9a9a"/><rect x="64" y="320" width="90" height="14" fill="#9a9a9a"/><rect x="64" y="368" width="150" height="14" fill="#9a9a9a"/><rect x="300" y="80" width="260" height="120" fill="none" stroke="#9a9a9a" stroke-width="2"/><rect x="320" y="104" width="80" height="12" fill="#9a9a9a"/><rect x="320" y="140" width="140" height="36" fill="#cfcfcf"/><rect x="580" y="80" width="260" height="120" fill="none" stroke="#9a9a9a" stroke-width="2"/><rect x="600" y="104" width="80" height="12" fill="#9a9a9a"/><rect x="600" y="140" width="140" height="36" fill="#cfcfcf"/><rect x="860" y="80" width="260" height="120" fill="none" stroke="#9a9a9a" stroke-width="2"/><rect x="880" y="104" width="80" height="12" fill="#9a9a9a"/><rect x="880" y="140" width="140" height="36" fill="#cfcfcf"/><line x1="300" y1="240" x2="1120" y2="240" stroke="#9a9a9a" stroke-width="1"/><rect x="316" y="254" width="180" height="12" fill="#cfcfcf"/><rect x="560" y="254" width="120" height="12" fill="#cfcfcf"/><rect x="960" y="254" width="120" height="12" fill="#cfcfcf"/><line x1="300" y1="284" x2="1120" y2="284" stroke="#9a9a9a" stroke-width="1"/><rect x="316" y="298" width="180" height="12" fill="#cfcfcf"/><rect x="560" y="298" width="120" height="12" fill="#cfcfcf"/><rect x="960" y="298" width="120" height="12" fill="#cfcfcf"/><line x1="300" y1="328" x2="1120" y2="328" stroke="#9a9a9a" stroke-width="1"/><rect x="316" y="342" width="180" height="12" fill="#cfcfcf"/><rect x="560" y="342" width="120" height="12" fill="#cfcfcf"/><rect x="960" y="342" width="120" height="12" fill="#cfcfcf"/><line x1="300" y1="372" x2="1120" y2="372" stroke="#9a9a9a" stroke-width="1"/><rect x="316" y="386" width="180" height="12" fill="#cfcfcf"/><rect x="560" y="386" width="120" height="12" fill="#cfcfcf"/><rect x="960" y="386" width="120" height="12" fill="#cfcfcf"/><line x1="300" y1="416" x2="1120" y2="416" stroke="#9a9a9a" stroke-width="1"/><rect x="316" y="430" width="180" height="12" fill="#cfcfcf"/><rect x="560" y="430" width="120" height="12" fill="#cfcfcf"/><rect x="960" y="430" width="120" height="12" fill="#cfcfcf"/><line x1="300" y1="460" x2="1120" y2="460" stroke="#9a9a9a" stroke-width="1"/><rect x="316" y="474" width="180" height="12" fill="#cfcfcf"/><rect x="560" y="474" width="120" height="12" fill="#cfcfcf"/><rect x="960" y="474" width="120" height="12" fill="#cfcfcf"/><line x1="300" y1="504" x2="1120" y2="504" stroke="#9a9a9a" stroke-width="1"/><rect x="316" y="518" width="180" height="12" fill="#cfcfcf"/><rect x="560" y="518" width="120" height="12" fill="#cfcfcf"/><rect x="960" y="518" width="120" height="12" fill="#cfcfcf"/><line x1="300" y1="548" x2="1120" y2="548" stroke="#9a9a9a" stroke-width="1"/><rect x="316" y="562" width="180" height="12" fill="#cfcfcf"/><rect x="560" y="562" width="120" height="12" fill="#cfcfcf"/><rect x="960" y="562" width="120" height="12" fill="#cfcfcf"/><line x1="300" y1="592" x2="1120" y2="592" stroke="#9a9a9a" stroke-width="1"/><rect x="316" y="606" width="180" height="12" fill="#cfcfcf"/><rect x="560" y="606" width="120" height="12" fill="#cfcfcf"/><rect x="960" y="606" width="120" height="12" fill="#cfcfcf"/><line x1="300" y1="636" x2="1120" y2="636" stroke="#9a9a9a" stroke-width="1"/><rect x="316" y="650" width="180" height="12" fill="#cfcfcf"/><rect x="560" y="650" width="120" height="12" fill="#cfcfcf"/><rect x="960" y="650" width="120" height="12" fill="#cfcfcf"/>
<rect x="0" y="836" width="1200" height="64" fill="#4a4a4a"/>
<text x="32" y="878" font-family="ui-monospace, 'IBM Plex Mono', monospace" font-size="22" fill="#e6e6e6" letter-spacing="2">BEKNO · 02</text>
<text x="1168" y="878" font-family="ui-monospace, 'IBM Plex Mono', monospace" font-size="22" fill="#e6e6e6" letter-spacing="2" text-anchor="end">IMAGEM DE EXEMPLO · 1200×900</text>
</svg>
